<svg width="291.886" height="52.502" viewBox="0 0 291.886 52.502" xmlns="http://www.w3.org/2000/svg"><g id="svgGroup" stroke-linecap="round" fill-rule="evenodd" font-size="9pt" stroke="#000000" stroke-width="0.5mm" fill="#ffffff" style="stroke:#000000;stroke-width:0.5mm;fill:#ffffff"><path d="M 154.746 52.031 L 145.43 52.031 L 145.43 0.469 L 161.133 0.469 L 165.469 31.905 L 169.776 0.469 L 185.625 0.469 L 185.625 52.031 L 176.192 52.031 L 176.192 14.883 L 170.274 52.031 L 161.016 52.031 L 154.746 14.883 L 154.746 52.031 Z M 39.463 52.031 L 28.682 52.031 L 28.682 0.469 L 39.463 0.469 L 39.463 12.451 Q 40.313 9.99 42.071 8.804 Q 43.829 7.617 46.172 7.617 Q 50.743 7.617 52.823 10.489 Q 54.903 13.36 54.903 18.194 L 54.903 52.031 L 44.297 52.031 L 44.297 18.867 Q 44.297 17.432 43.697 16.524 Q 43.096 15.615 41.807 15.615 Q 40.723 15.615 40.093 16.553 Q 39.463 17.49 39.463 18.78 L 39.463 52.031 Z M 0 39.258 L 0 15.469 Q 0 7.969 2.974 3.985 Q 5.948 0 12.657 0 Q 16.319 0 19.175 1.348 Q 22.032 2.696 23.672 5.376 Q 25.313 8.057 25.313 12.129 L 25.313 21.035 L 15.059 21.035 L 15.059 13.418 Q 15.059 11.104 14.473 10.298 Q 13.887 9.492 12.657 9.492 Q 11.221 9.492 10.723 10.532 Q 10.225 11.573 10.225 13.301 L 10.225 39.112 Q 10.225 41.25 10.855 42.129 Q 11.485 43.008 12.657 43.008 Q 13.975 43.008 14.517 41.924 Q 15.059 40.84 15.059 39.112 L 15.059 29.824 L 25.43 29.824 L 25.43 39.58 Q 25.43 46.377 22.002 49.439 Q 18.575 52.5 12.422 52.5 Q 6.827 52.5 3.413 49.014 Q 0 45.528 0 39.258 Z M 87.334 39.317 L 87.334 35.83 L 97.881 35.83 L 97.881 40.987 Q 97.881 42.481 98.467 43.33 Q 99.053 44.18 100.342 44.18 Q 102.627 44.18 102.627 40.752 Q 102.627 37.881 101.426 36.46 Q 100.225 35.039 98.496 33.721 L 92.901 29.414 Q 90.264 27.364 88.887 25.078 Q 87.51 22.793 87.51 18.721 Q 87.51 14.942 89.312 12.481 Q 91.114 10.02 94.087 8.819 Q 97.061 7.617 100.518 7.617 Q 113.291 7.617 113.291 20.362 L 113.291 21.182 L 102.452 21.182 L 102.452 19.512 Q 102.452 18.194 101.997 16.963 Q 101.543 15.733 100.225 15.733 Q 97.998 15.733 97.998 18.076 Q 97.998 20.449 99.873 21.797 L 106.377 26.543 Q 109.424 28.74 111.49 31.758 Q 113.555 34.776 113.555 39.785 Q 113.555 45.996 110.025 49.248 Q 106.495 52.5 100.342 52.5 Q 87.334 52.5 87.334 39.317 Z M 115.811 39.317 L 115.811 35.83 L 126.358 35.83 L 126.358 40.987 Q 126.358 42.481 126.944 43.33 Q 127.53 44.18 128.819 44.18 Q 131.104 44.18 131.104 40.752 Q 131.104 37.881 129.903 36.46 Q 128.702 35.039 126.973 33.721 L 121.377 29.414 Q 118.741 27.364 117.364 25.078 Q 115.987 22.793 115.987 18.721 Q 115.987 14.942 117.788 12.481 Q 119.59 10.02 122.564 8.819 Q 125.538 7.617 128.995 7.617 Q 141.768 7.617 141.768 20.362 L 141.768 21.182 L 130.928 21.182 L 130.928 19.512 Q 130.928 18.194 130.474 16.963 Q 130.02 15.733 128.702 15.733 Q 126.475 15.733 126.475 18.076 Q 126.475 20.449 128.35 21.797 L 134.854 26.543 Q 137.901 28.74 139.966 31.758 Q 142.032 34.776 142.032 39.785 Q 142.032 45.996 138.501 49.248 Q 134.971 52.5 128.819 52.5 Q 115.811 52.5 115.811 39.317 Z M 265.664 39.317 L 265.664 35.83 L 276.211 35.83 L 276.211 40.987 Q 276.211 42.481 276.797 43.33 Q 277.383 44.18 278.672 44.18 Q 280.957 44.18 280.957 40.752 Q 280.957 37.881 279.756 36.46 Q 278.555 35.039 276.827 33.721 L 271.231 29.414 Q 268.594 27.364 267.217 25.078 Q 265.84 22.793 265.84 18.721 Q 265.84 14.942 267.642 12.481 Q 269.444 10.02 272.417 8.819 Q 275.391 7.617 278.848 7.617 Q 291.621 7.617 291.621 20.362 L 291.621 21.182 L 280.782 21.182 L 280.782 19.512 Q 280.782 18.194 280.328 16.963 Q 279.873 15.733 278.555 15.733 Q 276.329 15.733 276.329 18.076 Q 276.329 20.449 278.204 21.797 L 284.707 26.543 Q 287.754 28.74 289.82 31.758 Q 291.885 34.776 291.885 39.785 Q 291.885 45.996 288.355 49.248 Q 284.825 52.5 278.672 52.5 Q 265.664 52.5 265.664 39.317 Z M 58.653 37.705 L 58.653 20.039 Q 58.653 13.916 62.168 10.767 Q 65.684 7.617 71.836 7.617 Q 84.493 7.617 84.493 20.039 L 84.493 23.233 Q 84.493 29.033 84.375 31.026 L 69.141 31.026 L 69.141 39.522 Q 69.141 40.694 69.288 41.822 Q 69.434 42.949 69.947 43.682 Q 70.459 44.414 71.602 44.414 Q 73.243 44.414 73.653 42.993 Q 74.063 41.573 74.063 39.287 L 74.063 35.069 L 84.493 35.069 L 84.493 37.559 Q 84.493 42.481 83.277 45.806 Q 82.061 49.131 79.175 50.816 Q 76.289 52.5 71.309 52.5 Q 66.621 52.5 63.838 50.742 Q 61.055 48.985 59.854 45.674 Q 58.653 42.364 58.653 37.705 Z M 236.983 37.705 L 236.983 20.039 Q 236.983 13.916 240.498 10.767 Q 244.014 7.617 250.166 7.617 Q 262.823 7.617 262.823 20.039 L 262.823 23.233 Q 262.823 29.033 262.705 31.026 L 247.471 31.026 L 247.471 39.522 Q 247.471 40.694 247.618 41.822 Q 247.764 42.949 248.277 43.682 Q 248.789 44.414 249.932 44.414 Q 251.573 44.414 251.983 42.993 Q 252.393 41.573 252.393 39.287 L 252.393 35.069 L 262.823 35.069 L 262.823 37.559 Q 262.823 42.481 261.607 45.806 Q 260.391 49.131 257.505 50.816 Q 254.62 52.5 249.639 52.5 Q 244.952 52.5 242.168 50.742 Q 239.385 48.985 238.184 45.674 Q 236.983 42.364 236.983 37.705 Z M 197.901 25.869 L 204.405 23.643 L 204.405 19.131 Q 204.405 15.586 202.09 15.586 Q 199.981 15.586 199.981 18.457 L 199.981 21.094 L 189.786 21.094 Q 189.756 20.86 189.756 20.493 L 189.756 19.658 Q 189.756 13.096 192.847 10.357 Q 195.938 7.617 202.647 7.617 Q 206.163 7.617 208.946 8.863 Q 211.729 10.108 213.355 12.539 Q 214.981 14.971 214.981 18.545 L 214.981 52.031 L 204.551 52.031 L 204.551 46.817 Q 203.789 49.571 202.032 51.035 Q 200.274 52.5 198.018 52.5 Q 194.356 52.5 192.437 50.801 Q 190.518 49.102 189.815 46.143 Q 189.112 43.184 189.112 39.434 Q 189.112 35.42 189.903 32.857 Q 190.694 30.293 192.613 28.653 Q 194.532 27.012 197.901 25.869 Z M 220.84 45.176 L 220.84 17.783 L 217.881 17.783 L 217.881 9.785 L 220.84 9.785 L 220.84 0.469 L 231.036 0.469 L 231.036 9.785 L 233.995 9.785 L 233.995 17.783 L 231.036 17.783 L 231.036 42.715 Q 231.036 43.799 231.387 44.239 Q 231.739 44.678 232.735 44.678 Q 233.438 44.678 233.995 44.561 L 233.995 51.709 Q 233.643 51.826 231.797 52.163 Q 229.952 52.5 228.047 52.5 Q 223.799 52.5 222.32 50.698 Q 220.84 48.897 220.84 45.176 Z M 204.375 40.928 L 204.375 28.682 Q 202.207 29.561 201.006 30.894 Q 199.805 32.227 199.805 34.805 L 199.805 40.459 Q 199.805 44.356 202.149 44.356 Q 203.438 44.356 203.907 43.272 Q 204.375 42.188 204.375 40.928 Z M 69.082 19.893 L 69.082 25.811 L 74.063 25.811 L 74.063 19.893 Q 74.063 17.52 73.477 16.48 Q 72.891 15.44 71.719 15.44 Q 70.459 15.44 69.771 16.436 Q 69.082 17.432 69.082 19.893 Z M 247.413 19.893 L 247.413 25.811 L 252.393 25.811 L 252.393 19.893 Q 252.393 17.52 251.807 16.48 Q 251.221 15.44 250.049 15.44 Q 248.789 15.44 248.101 16.436 Q 247.413 17.432 247.413 19.893 Z" vector-effect="non-scaling-stroke"/></g></svg>